<?xml version="1.0" encoding="utf-8"?>
<!-- Generator: Adobe Illustrator 16.0.0, SVG Export Plug-In . SVG Version: 6.00 Build 0)  -->
<!DOCTYPE svg PUBLIC "-//W3C//DTD SVG 1.1//EN" "http://www.w3.org/Graphics/SVG/1.1/DTD/svg11.dtd">
<svg version="1.1" id="Layer_1" xmlns="http://www.w3.org/2000/svg" xmlns:xlink="http://www.w3.org/1999/xlink" x="0px" y="0px"
	 width="40px" height="40px" viewBox="0 0 40 40" enable-background="new 0 0 40 40" xml:space="preserve">
<g id="Timesaver" display="none">
	<g display="inline">
		<g>
			<path fill="#282828" d="M23.508,22.008H21V17.5c0-0.828-0.672-1.5-1.5-1.5S18,16.672,18,17.5v6c0,0.001,0,0.003,0,0.004
				s0,0.003,0,0.004c0,0.828,0.672,1.5,1.5,1.5h4.008c0.828,0,1.5-0.672,1.5-1.5S24.336,22.008,23.508,22.008z M19.5,9
				C12.044,9,6,15.044,6,22.5S12.044,36,19.5,36C26.955,36,33,29.956,33,22.5S26.955,9,19.5,9z M19.5,33.01
				c-5.805,0-10.51-4.705-10.51-10.51c0-5.805,4.705-10.51,10.51-10.51c5.805,0,10.51,4.705,10.51,10.51
				C30.01,28.305,25.305,33.01,19.5,33.01z M22,5c0-0.552-0.447-1-1-1h-3c-0.553,0-1,0.448-1,1v2h5V5z"/>
		</g>
	</g>
</g>
<g id="Tip" display="none">
	<g display="inline">
		<g>
			<path fill="#262626" d="M20.001,5C13.927,5,9,9.925,9,16c0,2.822,1.069,5.387,2.816,7.335c2.428,2.427,3.067,3.862,3.237,5.563
				C15.112,29.523,15.64,30,16.27,30h7.46c0.631,0,1.158-0.477,1.217-1.102c0.17-1.701,0.81-3.138,3.236-5.563
				C29.932,21.387,31,18.822,31,16C31,9.925,26.075,5,20.001,5z M25.999,21.277c-2.081,2.092-3.228,3.812-3.747,5.723h-4.506
				c-0.521-1.914-1.667-3.634-3.745-5.723C12.71,19.811,12,17.94,12,16c0-4.411,3.589-8,8.001-8C24.412,8,28,11.589,28,16
				C28,17.94,27.29,19.811,25.999,21.277z M20.521,15.609L21.6,14.8c0.442-0.331,0.532-0.958,0.2-1.4s-0.958-0.532-1.399-0.2l-2,1.5
				c-0.232,0.174-0.377,0.44-0.397,0.729c-0.02,0.289,0.085,0.572,0.29,0.777l1.185,1.186L18.4,18.201
				c-0.442,0.33-0.532,0.957-0.2,1.399c0.196,0.262,0.496,0.4,0.801,0.4c0.209,0,0.419-0.064,0.599-0.199l2-1.5
				c0.232-0.174,0.377-0.44,0.397-0.729c0.021-0.289-0.085-0.573-0.29-0.778L20.521,15.609z M16,33c0,1.104,0.896,2,2,2h4
				c1.104,0,2-0.896,2-2v-1h-8V33z"/>
		</g>
	</g>
</g>
<g id="Note" display="none">
	<g display="inline">
		<g>
			<path fill="#1E1E1E" d="M30.84,16.067c-0.586-0.585-1.537-0.585-2.122,0c-0.125,0.125-0.211,0.274-0.282,0.426l-0.07-0.071
				l-9.607,9.605l0,0l-1.061,1.062c-1.367,1.367-3.583,1.367-4.95,0c-1.367-1.366-1.366-3.583,0-4.95l1.061-1.061l0,0l2.062-2.062
				l3.124-3.123l0,0l4.421-4.421l1.414,1.414L14.515,23.2l0.071,0.071c-0.151,0.07-0.299,0.156-0.425,0.281
				c-0.585,0.586-0.585,1.535,0,2.121s1.536,0.586,2.121,0c0.125-0.125,0.21-0.273,0.282-0.425l0.071,0.071
				c0,0,8.562-8.562,9.607-9.607c1.562-1.562,1.562-4.095,0-5.656c-1.562-1.562-4.096-1.562-5.658,0
				c-0.775,0.776-8.899,8.899-8.899,8.899l0,0l-1.061,1.061c-2.539,2.538-2.539,6.654,0,9.192c2.539,2.539,6.654,2.539,9.192,0
				l0.354-0.354l10.314-10.313l-0.07-0.072c0.15-0.072,0.3-0.157,0.425-0.282C31.425,17.604,31.425,16.653,30.84,16.067z"/>
		</g>
	</g>
</g>
<g id="Caution">
	<path fill="#FFFFFF" d="M25.52,10.906c-0.785,0-1.631-0.056-2.52-0.183v3.013c0.832,0.103,1.671,0.17,2.52,0.17
		c0.898,0,1.73-0.058,2.48-0.146v8.938c-0.688,0.116-1.529,0.209-2.48,0.209c-1.551,0-3.069-0.244-4.52-0.72v-0.69v-3v-9V7.906
		V6.497c-1.255-0.257-2.446-0.368-3.519-0.368C14.223,6.129,12,7.018,12,7.018V5.5C12,4.672,11.328,4,10.5,4C9.671,4,9,4.672,9,5.5
		v28c0,0.828,0.671,1.5,1.5,1.5c0.828,0,1.5-0.672,1.5-1.5V22.018c0,0,2.223-0.889,5.481-0.889c0.165,0,0.349,0.021,0.519,0.027
		v0.281v1.469v1.591c0.652,0.132,1.316,0.293,2,0.521c2,0.666,3.889,0.889,5.52,0.889c3.258,0,5.48-0.889,5.48-0.889v-15
		C31,10.018,28.777,10.906,25.52,10.906z M18,18.156c-0.17-0.006-0.354-0.027-0.519-0.027c-3.259,0-5.481,0.889-5.481,0.889v-9
		c0,0,1.838-0.725,4.609-0.86c0.28-0.017,0.568-0.028,0.872-0.028c0.165,0,0.349,0.021,0.519,0.027V18.156z"/>
</g>
<g id="Warning" display="none">
	<g display="inline">
		<g>
			<path fill="#1C1C1C" d="M34.67,26.5L24.83,9.457c-0.893-1.547-2.544-2.5-4.33-2.5s-3.438,0.953-4.33,2.5L6.33,26.5
				c-0.894,1.547-0.894,3.453,0,5c0.893,1.547,2.544,2.5,4.33,2.5h19.68c1.786,0,3.438-0.953,4.33-2.5S35.562,28.047,34.67,26.5z
				 M32.072,29.999C31.716,30.616,31.052,31,30.34,31H10.66c-0.713,0-1.376-0.383-1.732-1c-0.355-0.617-0.355-1.383,0-2l9.84-17.043
				c0.356-0.617,1.02-1,1.732-1s1.376,0.383,1.73,1L32.072,28C32.43,28.617,32.43,29.383,32.072,29.999z M20.5,15
				c-0.829,0-1.5,0.672-1.5,1.5v5c0,0.828,0.671,1.5,1.5,1.5c0.828,0,1.5-0.672,1.5-1.5v-5C22,15.672,21.328,15,20.5,15z M20.5,25
				c-0.829,0-1.5,0.672-1.5,1.5s0.671,1.5,1.5,1.5c0.828,0,1.5-0.672,1.5-1.5S21.328,25,20.5,25z"/>
		</g>
	</g>
</g>
</svg>
